 <svg  version="1.0" xmlns="http://www.w3.org/2000/svg"  width="300.000000pt" height="300.000000pt" viewBox="0 0 300.000000 300.000000"  preserveAspectRatio="xMidYMid meet">  <g transform="translate(0.000000,300.000000) scale(0.100000,-0.100000)" fill="#8fbe32" stroke="none"> <path d="M1341 2210 c-57 -13 -66 -30 -70 -131 -3 -82 -5 -91 -27 -106 -31 -20 -31 -46 1 -67 23 -15 25 -23 25 -89 0 -39 3 -82 6 -95 7 -26 51 -52 89 -52 23 0 26 4 23 28 -2 19 -9 28 -24 30 -20 3 -22 10 -25 87 -3 71 -8 88 -26 106 l-22 22 22 18 c19 15 22 29 26 103 3 81 4 86 27 92 18 5 24 13 24 35 0 16 -3 29 -7 28 -5 -1 -23 -5 -42 -9z"/> <path d="M1646 2213 c-15 -15 -4 -43 22 -55 26 -13 27 -17 30 -95 2 -73 5 -84 27 -101 l24 -19 -24 -23 c-22 -21 -25 -32 -25 -102 0 -79 0 -79 -30 -89 -22 -8 -30 -17 -30 -35 0 -21 5 -24 34 -24 19 0 45 9 60 21 24 19 26 26 26 94 0 81 12 125 34 125 7 0 16 12 19 26 3 20 -1 27 -18 34 -27 10 -37 46 -34 122 3 66 -5 92 -34 106 -31 15 -73 23 -81 15z"/> <path d="M1550 2129 c-29 -12 -80 -58 -80 -73 0 -6 -4 -17 -9 -25 -7 -11 -13 -10 -34 3 -17 12 -27 14 -32 6 -12 -19 4 -56 30 -70 24 -13 25 -18 25 -101 0 -100 12 -122 64 -117 41 4 52 29 48 111 -3 61 -6 68 -28 73 -38 10 -54 -11 -54 -73 0 -60 21 -82 47 -47 14 18 14 18 11 -5 -4 -33 -31 -49 -52 -32 -12 10 -16 33 -16 93 l0 79 44 19 c54 23 96 76 103 130 5 37 4 40 -18 39 -13 0 -35 -5 -49 -10z m40 -38 c0 -26 -41 -74 -85 -100 -29 -17 -35 -18 -35 -5 0 25 28 70 60 98 37 31 60 33 60 7z m-54 -183 c4 -6 2 -14 -4 -16 -7 -2 -12 -17 -12 -32 0 -16 -4 -32 -10 -35 -11 -7 -14 77 -3 88 10 10 21 8 29 -5z"/> <path d="M225 1581 c-126 -76 -75 -291 68 -291 40 0 97 24 97 40 0 14 -14 12 -54 -6 -20 -10 -44 -14 -59 -10 -75 18 -122 111 -93 180 30 71 97 102 157 72 37 -18 49 -20 49 -6 0 16 -57 40 -97 40 -21 0 -52 -8 -68 -19z"/> <path d="M490 1577 c-70 -46 -91 -127 -55 -202 39 -79 126 -107 200 -64 46 28 69 71 69 134 1 121 -121 196 -214 132z m153 -35 c38 -38 48 -112 23 -161 -19 -35 -69 -71 -101 -71 -58 0 -125 71 -125 133 0 40 35 104 68 122 40 23 99 13 135 -23z"/> <path d="M774 1587 c-2 -7 -3 -76 -2 -152 l3 -140 44 -3 c102 -7 181 57 181 148 0 65 -26 111 -80 138 -50 25 -137 31 -146 9z m161 -50 c60 -60 59 -134 -1 -186 -30 -27 -43 -31 -89 -31 l-55 0 0 125 0 125 56 0 c50 0 59 -3 89 -33z"/> <path d="M1073 1592 c-9 -6 -12 -48 -10 -152 l2 -145 98 0 c123 0 136 19 15 23 l-88 3 0 59 0 60 71 0 c50 0 70 3 67 12 -3 7 -27 11 -71 9 l-67 -2 0 55 0 56 86 0 c64 0 85 3 82 13 -5 14 -165 22 -185 9z"/> <path d="M1343 1581 c-35 -22 -49 -63 -34 -102 12 -32 29 -46 77 -63 30 -10 39 -19 38 -35 -1 -20 1 -20 14 -7 13 13 13 17 1 32 -12 15 -12 17 1 12 22 -7 26 -58 5 -58 -9 0 -13 -5 -10 -11 5 -7 1 -8 -11 -1 -95 47 -92 46 -114 27 -31 -28 -24 -44 26 -67 60 -26 110 -19 141 19 49 60 18 130 -68 153 -24 7 -50 14 -56 16 -7 2 -13 11 -13 21 0 13 3 14 11 6 9 -9 16 -9 30 0 13 8 24 8 45 -1 24 -11 30 -10 50 9 28 26 24 34 -23 54 -47 20 -72 19 -110 -4z"/> <path d="M1540 1445 l0 -145 40 0 41 0 -7 38 c-8 46 -12 52 -28 52 -9 0 -14 14 -14 40 -1 45 2 47 41 21 24 -16 26 -19 12 -31 -28 -23 -17 -33 31 -27 64 7 94 37 94 95 0 35 -6 49 -29 73 -27 27 -35 29 -105 29 l-76 0 0 -145z m162 68 c4 -2 -2 -15 -14 -28 -28 -33 -65 -33 -80 0 -8 19 -14 22 -20 13 -5 -9 -8 -8 -8 5 0 16 8 18 58 16 31 -1 60 -4 64 -6z"/> <path d="M1793 1445 l-2 -145 40 0 41 0 -4 48 c-3 40 0 47 16 47 13 0 23 -14 35 -45 16 -44 18 -45 64 -48 l47 -3 -31 53 c-24 41 -29 56 -20 68 38 52 35 117 -6 150 -21 16 -41 20 -102 20 l-76 0 -2 -145z m87 98 c0 -7 -7 -13 -15 -13 -8 0 -15 -4 -15 -9 0 -5 -7 -11 -14 -14 -10 -4 -13 -1 -10 9 2 7 6 20 8 28 6 18 46 17 46 -1z m55 -33 c3 -6 3 -19 0 -30 -5 -15 -15 -20 -41 -20 -31 0 -34 2 -34 30 0 28 3 30 34 30 19 0 38 -5 41 -10z m-35 -72 c22 -3 34 2 50 21 11 14 20 20 20 14 0 -7 -5 -15 -11 -18 -6 -4 -8 -13 -5 -20 2 -7 -2 -16 -11 -19 -14 -6 -14 -8 1 -24 9 -10 16 -22 16 -26 0 -6 -11 1 -45 32 -19 17 -40 15 -60 -4 -23 -23 -29 -12 -26 54 1 33 1 33 22 13 11 -10 34 -21 49 -23z"/> <path d="M2124 1580 c-35 -14 -71 -66 -78 -113 -8 -54 8 -100 51 -140 61 -57 176 -30 209 49 30 72 3 169 -56 199 -31 16 -92 19 -126 5z m103 -82 c30 -28 30 -74 1 -105 -43 -46 -109 -16 -111 49 -2 70 61 102 110 56z"/> <path d="M2361 1476 c4 -105 6 -117 28 -140 14 -15 42 -31 63 -38 32 -9 44 -8 77 7 57 25 71 61 71 184 l0 101 -41 0 -41 0 3 -102 c3 -100 2 -103 -21 -115 -26 -13 -59 -2 -61 20 -1 7 0 54 1 105 l2 92 -42 0 -42 0 3 -114z"/> <path d="M2642 1553 c3 -35 5 -37 37 -37 l33 -1 -1 -107 -2 -108 41 0 42 0 -3 108 -2 107 36 -1 c36 -1 37 -1 37 37 l0 39 -110 0 -110 0 2 -37z m149 -5 c5 -7 0 -17 -11 -25 -10 -7 -20 -23 -22 -36 -3 -19 -6 -16 -22 18 -11 22 -21 42 -22 45 -6 12 70 10 77 -2z"/> </g> </svg> 